<?xml version="1.0" encoding="utf-8"?>
<svg version="1.1" xmlns="http://www.w3.org/2000/svg" xmlns:xlink="http://www.w3.org/1999/xlink" x="0px" y="0px"
	 viewBox="0 0 1739.5 1739.5" enable-background="new 0 0 1739.5 1739.5" xml:space="preserve">
<g id="_x37_">
	<g id="color_4_">
		<g>
			<path fill="#A54614" d="M848,1123.6V900.8c-2.4-2.4-3.7-3.7-6-6H327.8c-2.4,2.4-3.7,3.7-6,6v222.8c2.4,2.4,3.7,3.7,6,6H842
				C844.4,1127.3,845.7,1125.9,848,1123.6z"/>
		</g>
		<g>
			<path fill="#A54614" d="M323.4,615.9v222.8c2.4,2.4,3.7,3.7,6,6h258.5c2.4-2.4,3.7-3.7,6-6V615.9c-2.4-2.4-3.7-3.7-6-6H329.4
				C327.1,612.2,325.8,613.6,323.4,615.9z"/>
		</g>
		<g>
			<path fill="#A54614" d="M1102.1,609.9H637.4c-2.4,2.4-3.7,3.7-6,6v222.8c2.4,2.4,3.7,3.7,6,6h464.7c2.4-2.4,3.7-3.7,6-6V615.9
				C1105.8,613.6,1104.5,612.2,1102.1,609.9z"/>
		</g>
		<g>
			<path fill="#A54614" d="M897.5,559.9h514.2c2.4-2.4,3.7-3.7,6-6V331.1c-2.4-2.4-3.7-3.7-6-6H897.5c-2.4,2.4-3.7,3.7-6,6v222.8
				C893.8,556.2,895.1,557.6,897.5,559.9z"/>
		</g>
		<g>
			<path fill="#A54614" d="M637.4,1414.5h464.7c2.4-2.4,3.7-3.7,6-6v-222.8c-2.4-2.4-3.7-3.7-6-6H637.4c-2.4,2.4-3.7,3.7-6,6v222.8
				C633.7,1410.8,635,1412.1,637.4,1414.5z"/>
		</g>
		<g>
			<path fill="#A54614" d="M1145.5,615.9v222.8c2.4,2.4,3.7,3.7,6,6h258.5c2.4-2.4,3.7-3.7,6-6V615.9c-2.4-2.4-3.7-3.7-6-6h-258.5
				C1149.2,612.2,1147.9,613.6,1145.5,615.9z"/>
		</g>
		<g>
			<path fill="#A54614" d="M1145.5,1185.6v222.8c2.4,2.4,3.7,3.7,6,6h258.5c2.4-2.4,3.7-3.7,6-6v-222.8c-2.4-2.4-3.7-3.7-6-6h-258.5
				C1149.2,1181.9,1147.9,1183.3,1145.5,1185.6z"/>
		</g>
		<g>
			<path fill="#A54614" d="M1411.7,894.7H897.5c-2.4,2.4-3.7,3.7-6,6v222.8c2.4,2.4,3.7,3.7,6,6h514.2c2.4-2.4,3.7-3.7,6-6V900.8
				C1415.4,898.4,1414.1,897.1,1411.7,894.7z"/>
		</g>
		<g>
			<path fill="#A54614" d="M587.9,1179.6H329.4c-2.4,2.4-3.7,3.7-6,6v222.8c2.4,2.4,3.7,3.7,6,6h258.5c2.4-2.4,3.7-3.7,6-6v-222.8
				C591.6,1183.3,590.3,1181.9,587.9,1179.6z"/>
		</g>
		<g>
			<path fill="#A54614" d="M848,553.9V331.1c-2.4-2.4-3.7-3.7-6-6H327.8c-2.4,2.4-3.7,3.7-6,6v222.8c2.4,2.4,3.7,3.7,6,6H842
				C844.4,557.6,845.7,556.2,848,553.9z"/>
		</g>
	</g>
	<path id="line_3_" d="M1427.8,563.6h15.8c1.5,0,2.7-1.2,2.7-2.7V324.7c0-0.7-0.3-1.4-0.8-1.9l-28.8-28.8c-0.5-0.5-1.2-0.8-1.9-0.8
		h-521c-1.5,0-2.7,1.2-2.7,2.7v15.8c0,1.5-1.2,2.7-2.7,2.7h-37.1c-1.5,0-2.7-1.2-2.7-2.7v-15.8c0-1.5-1.2-2.7-2.7-2.7h-521
		c-0.7,0-1.4,0.3-1.9,0.8l-28.8,28.8c-0.5,0.5-0.8,1.2-0.8,1.9v236.2c0,1.5,1.2,2.7,2.7,2.7h15.8c1.5,0,2.7,1.2,2.7,2.7v37.1
		c0,1.5-1.2,2.7-2.7,2.7h-15.8c-1.5,0-2.7,1.2-2.7,2.7v236.8c0,1.5,1.2,2.7,2.7,2.7h15.8c1.5,0,2.7,1.2,2.7,2.7v37.1
		c0,1.5-1.2,2.7-2.7,2.7h-15.8c-1.5,0-2.7,1.2-2.7,2.7v236.8c0,1.5,1.2,2.7,2.7,2.7h15.8c1.5,0,2.7,1.2,2.7,2.7v37.1
		c0,1.5-1.2,2.7-2.7,2.7h-15.8c-1.5,0-2.7,1.2-2.7,2.7v236.2c0,0.7,0.3,1.4,0.8,1.9l28.8,28.8c0.5,0.5,1.2,0.8,1.9,0.8h268.6
		c1.5,0,2.7-1.2,2.7-2.7v-15.8c0-1.5,1.2-2.7,2.7-2.7h37.1c1.5,0,2.7,1.2,2.7,2.7v15.8c0,1.5,1.2,2.7,2.7,2.7h456.7
		c1.5,0,2.7-1.2,2.7-2.7v-15.8c0-1.5,1.2-2.7,2.7-2.7h37.1c1.5,0,2.7,1.2,2.7,2.7v15.8c0,1.5,1.2,2.7,2.7,2.7h268.6
		c0.7,0,1.4-0.3,1.9-0.8l28.8-28.8c0.5-0.5,0.8-1.2,0.8-1.9v-236.2c0-1.5-1.2-2.7-2.7-2.7h-15.8c-1.5,0-2.7-1.2-2.7-2.7V1136
		c0-1.5,1.2-2.7,2.7-2.7h15.8c1.5,0,2.7-1.2,2.7-2.7V893.8c0-1.5-1.2-2.7-2.7-2.7h-15.8c-1.5,0-2.7-1.2-2.7-2.7v-37.1
		c0-1.5,1.2-2.7,2.7-2.7h15.8c1.5,0,2.7-1.2,2.7-2.7V608.9c0-1.5-1.2-2.7-2.7-2.7h-15.8c-1.5,0-2.7-1.2-2.7-2.7v-37.1
		C1425.1,564.8,1426.3,563.6,1427.8,563.6z M1081,620.6c2.1,2.1,3.3,3.3,5.5,5.5v202.5c-2.1,2.1-3.3,3.3-5.5,5.5H658.5
		c-2.1-2.1-3.3-3.3-5.5-5.5V626.1c2.1-2.1,3.3-3.3,5.5-5.5H1081z M335.7,341.2c2.1-2.1,3.3-3.3,5.5-5.5h487.4
		c2.1,2.1,3.3,3.3,5.5,5.5v202.5c-2.1,2.1-3.3,3.3-5.5,5.5H341.2c-2.1-2.1-3.3-3.3-5.5-5.5V341.2z M335.7,626.1
		c2.1-2.1,3.3-3.3,5.5-5.5h235c2.1,2.1,3.3,3.3,5.5,5.5v202.5c-2.1,2.1-3.3,3.3-5.5,5.5h-235c-2.1-2.1-3.3-3.3-5.5-5.5V626.1z
		 M581.7,1398.3c-2.1,2.1-3.3,3.3-5.5,5.5h-235c-2.1-2.1-3.3-3.3-5.5-5.5v-202.5c2.1-2.1,3.3-3.3,5.5-5.5h235
		c2.1,2.1,3.3,3.3,5.5,5.5V1398.3z M341.2,1118.9c-2.1-2.1-3.3-3.3-5.5-5.5V910.9c2.1-2.1,3.3-3.3,5.5-5.5h487.4
		c2.1,2.1,3.3,3.3,5.5,5.5v202.5c-2.1,2.1-3.3,3.3-5.5,5.5H341.2z M1086.5,1398.3c-2.1,2.1-3.3,3.3-5.5,5.5H658.5
		c-2.1-2.1-3.3-3.3-5.5-5.5v-202.5c2.1-2.1,3.3-3.3,5.5-5.5H1081c2.1,2.1,3.3,3.3,5.5,5.5V1398.3z M1403.8,1398.3
		c-2.1,2.1-3.3,3.3-5.5,5.5h-235c-2.1-2.1-3.3-3.3-5.5-5.5v-202.5c2.1-2.1,3.3-3.3,5.5-5.5h235c2.1,2.1,3.3,3.3,5.5,5.5V1398.3z
		 M1403.8,1113.4c-2.1,2.1-3.3,3.3-5.5,5.5H910.9c-2.1-2.1-3.3-3.3-5.5-5.5V910.9c2.1-2.1,3.3-3.3,5.5-5.5h487.4
		c2.1,2.1,3.3,3.3,5.5,5.5V1113.4z M1403.8,828.6c-2.1,2.1-3.3,3.3-5.5,5.5h-235c-2.1-2.1-3.3-3.3-5.5-5.5V626.1
		c2.1-2.1,3.3-3.3,5.5-5.5h235c2.1,2.1,3.3,3.3,5.5,5.5V828.6z M1403.8,543.7c-2.1,2.1-3.3,3.3-5.5,5.5H910.9
		c-2.1-2.1-3.3-3.3-5.5-5.5V341.2c2.1-2.1,3.3-3.3,5.5-5.5h487.4c2.1,2.1,3.3,3.3,5.5,5.5V543.7z"/>
</g>
</svg>
